<?xml version="1.0" encoding="utf-8"?>
<!-- Generator: Adobe Illustrator 18.1.1, SVG Export Plug-In . SVG Version: 6.00 Build 0)  -->
<svg version="1.1" id="Lag_1" xmlns="http://www.w3.org/2000/svg" xmlns:xlink="http://www.w3.org/1999/xlink" x="0px" y="0px"
	 viewBox="0 0 960 560" enable-background="new 0 0 960 560" xml:space="preserve">
<radialGradient id="SVGID_1_" cx="433.445" cy="256.6312" r="192.9782" gradientTransform="matrix(1 0 0 4 0 -769.8936)" gradientUnits="userSpaceOnUse">
	<stop  offset="5.320000e-002" style="stop-color:#076690"/>
	<stop  offset="6.700533e-002" style="stop-color:#06678D"/>
	<stop  offset="0.1483" style="stop-color:#046B82"/>
	<stop  offset="0.1961" style="stop-color:#036D7D"/>
	<stop  offset="0.363" style="stop-color:#017270"/>
	<stop  offset="0.5211" style="stop-color:#00746C"/>
	<stop  offset="0.8491" style="stop-color:#008A76"/>
	<stop  offset="0.9785" style="stop-color:#00947B"/>
</radialGradient>
<radialGradient id="SVGID_2_" cx="433.445" cy="256.5663" r="194.6492" gradientUnits="userSpaceOnUse">
	<stop  offset="2.151969e-002" style="stop-color:#00947B"/>
	<stop  offset="0.1509" style="stop-color:#008A76"/>
	<stop  offset="0.4789" style="stop-color:#00746C"/>
	<stop  offset="0.637" style="stop-color:#017270"/>
	<stop  offset="0.8039" style="stop-color:#036D7D"/>
	<stop  offset="0.8517" style="stop-color:#046B82"/>
	<stop  offset="0.933" style="stop-color:#06678D"/>
	<stop  offset="0.9468" style="stop-color:#076690"/>
</radialGradient>
<path fill="url(#SVGID_1_)" stroke="url(#SVGID_2_)" stroke-width="3" stroke-miterlimit="10" d="M644,308c0,0-8.3-23.3-13-30
	c-4-5.7-20-19-20-19s11.8-13.9,15-19c3.9-6.1,13-26,13-26s-14.2-14.5-20-18c-9.6-5.7-42-15-42-15s7.3-14.7,8-20c1-7.5-3-30-3-30
	s-20.1-6.3-27-7c-8.7-0.9-35,2-35,2s-9.2-14-13-18c-6.4-6.9-29-24-29-24s-19,3.7-25,6c-4.1,1.6-13,6.6-18.7,9.9
	c-5.5-3.2-15.8-9.1-20.4-10.9c-5.6-2.2-22.5-5.5-24.8-6c0,0,0,0,0,0c0,0-0.1,0-0.1,0c-0.1,0-0.1,0-0.1,0s-22.6,17.1-29,24
	c-3.8,4-13,18-13,18s-26.3-2.9-35-2c-6.9,0.7-27,7-27,7s-4,22.5-3,30c0.8,5.3,8,20,8,20s-32.4,9.3-42,15c-5.8,3.5-20,18-20,18
	s9.1,19.9,13,26c3.3,5.1,15,19,15,19s-16,13.3-20,19c-4.7,6.7-13,30-13,30l20,16l23,11c0,0-13.4,18-16,25c-2.9,7.8-5,33-5,33
	s20,9.8,27,12c8.5,2.7,35,7,35,7s-8.3,5.9-11,8c-2.8,2.2-11,9-11,9s261.2,3.9,296,1.5c-0.2-0.2-0.3-0.5-0.5-0.7c0,0-0.1-0.1-0.1-0.1
	c-0.2-0.2-0.4-0.4-0.6-0.6c-0.2-0.2-0.5-0.4-0.7-0.7c-0.7-0.5-1.2-1.2-1.5-2c-2.4-2-5.1-4.2-6.6-5.3c-2.7-2.1-11-8-11-8
	s26.5-4.3,35-7c7-2.2,27-12,27-12s-2.1-25.2-5-33c-2.6-7-16-25-16-25l23-11L644,308z"/>
<path fill="#00A99D" d="M391.1,83C391.1,83,391,83,391.1,83C391,83,391,83,391.1,83C391,83,391,83,391.1,83z"/>
<radialGradient id="SVGID_3_" cx="456.2419" cy="310.594" r="114.4861" gradientTransform="matrix(0.9987 -5.143915e-002 5.143915e-002 0.9987 -15.3116 24.211)" gradientUnits="userSpaceOnUse">
	<stop  offset="2.151969e-002" style="stop-color:#00947B"/>
	<stop  offset="0.1509" style="stop-color:#008A76"/>
	<stop  offset="0.4789" style="stop-color:#00746C"/>
	<stop  offset="0.637" style="stop-color:#017270"/>
	<stop  offset="0.8039" style="stop-color:#036D7D"/>
	<stop  offset="0.8517" style="stop-color:#046B82"/>
	<stop  offset="0.933" style="stop-color:#06678D"/>
	<stop  offset="0.9468" style="stop-color:#076690"/>
</radialGradient>
<path fill="#FFFFFF" stroke="url(#SVGID_3_)" stroke-width="3" stroke-miterlimit="10" d="M370,428l2.4,0.2
	c-12.1-6.9-14.9-40.6-12.8-54.4c1.7-11,16.9-28.9,23.1-38.2c6.2-9.4,26.2-36.4,26.2-36.4s10.8-22.6,12.4-30.7
	c2.2-11.1,0.3-36.3-7.3-44.7c-3.2-3.5-18.3-5.1-18.3-5.1l-24.8,4.3l17.1-18.9c0,0,7.6-10.6,11.4-12.6c5.3-2.8,18.6-2.8,24-0.2
	c5.7,2.6,12.2,14.6,15.1,20.3c2.3,4.6,4.5,14.7,5,19.8c0.7,6.5-0.2,19.6-0.7,26.1c-0.3,4.5-0.8,13.6-1.1,18.1
	c-0.5,7.3-1.8,21.8-1.5,29.1c0.3,6.3,2.5,18.8,4.3,24.8c1.7,5.7,7,16.4,10.1,21.5c4.6,7.5,16.2,20.7,22.4,26.9
	c5.7,5.6,18.6,15,25,19.7c7.2,5.3,22.2,15.3,30,19.5c7.7,4.1,24.2,10.5,32.7,12.3"/>
<radialGradient id="SVGID_4_" cx="416.5234" cy="179.2849" r="11.0885" gradientUnits="userSpaceOnUse">
	<stop  offset="2.151969e-002" style="stop-color:#00947B"/>
	<stop  offset="0.1509" style="stop-color:#008A76"/>
	<stop  offset="0.4789" style="stop-color:#00746C"/>
	<stop  offset="0.637" style="stop-color:#017270"/>
	<stop  offset="0.8039" style="stop-color:#036D7D"/>
	<stop  offset="0.8517" style="stop-color:#046B82"/>
	<stop  offset="0.933" style="stop-color:#06678D"/>
	<stop  offset="0.9468" style="stop-color:#076690"/>
</radialGradient>
<path fill="#FFFFFF" stroke="url(#SVGID_4_)" stroke-miterlimit="10" d="M415.5,185.7c0,0,4.5-6,6.3-7.8c1.6-1.5,7-5.4,7-5.4H404
	c0,0,4.2,3.6,5.5,5C411.2,179.4,415.5,185.7,415.5,185.7z"/>
<radialGradient id="SVGID_5_" cx="425.3745" cy="167.3812" r="2.8853" gradientUnits="userSpaceOnUse">
	<stop  offset="5.320000e-002" style="stop-color:#076690"/>
	<stop  offset="6.700533e-002" style="stop-color:#06678D"/>
	<stop  offset="0.1483" style="stop-color:#046B82"/>
	<stop  offset="0.1961" style="stop-color:#036D7D"/>
	<stop  offset="0.363" style="stop-color:#017270"/>
	<stop  offset="0.5211" style="stop-color:#00746C"/>
	<stop  offset="0.8491" style="stop-color:#008A76"/>
	<stop  offset="0.9785" style="stop-color:#00947B"/>
</radialGradient>
<ellipse fill="#FFFFFF" stroke="url(#SVGID_5_)" stroke-miterlimit="10" cx="425.4" cy="167.4" rx="2.4" ry="2.4"/>
<radialGradient id="SVGID_6_" cx="405.3745" cy="167.3812" r="2.8853" gradientUnits="userSpaceOnUse">
	<stop  offset="5.320000e-002" style="stop-color:#076690"/>
	<stop  offset="6.700533e-002" style="stop-color:#06678D"/>
	<stop  offset="0.1483" style="stop-color:#046B82"/>
	<stop  offset="0.1961" style="stop-color:#036D7D"/>
	<stop  offset="0.363" style="stop-color:#017270"/>
	<stop  offset="0.5211" style="stop-color:#00746C"/>
	<stop  offset="0.8491" style="stop-color:#008A76"/>
	<stop  offset="0.9785" style="stop-color:#00947B"/>
</radialGradient>
<ellipse fill="#FFFFFF" stroke="url(#SVGID_6_)" stroke-miterlimit="10" cx="405.4" cy="167.4" rx="2.4" ry="2.4"/>
<radialGradient id="SVGID_7_" cx="411.3745" cy="167.3812" r="2.8853" gradientUnits="userSpaceOnUse">
	<stop  offset="5.320000e-002" style="stop-color:#076690"/>
	<stop  offset="6.700533e-002" style="stop-color:#06678D"/>
	<stop  offset="0.1483" style="stop-color:#046B82"/>
	<stop  offset="0.1961" style="stop-color:#036D7D"/>
	<stop  offset="0.363" style="stop-color:#017270"/>
	<stop  offset="0.5211" style="stop-color:#00746C"/>
	<stop  offset="0.8491" style="stop-color:#008A76"/>
	<stop  offset="0.9785" style="stop-color:#00947B"/>
</radialGradient>
<ellipse fill="#FFFFFF" stroke="url(#SVGID_7_)" stroke-miterlimit="10" cx="411.4" cy="167.4" rx="2.4" ry="2.4"/>
<radialGradient id="SVGID_8_" cx="418.3745" cy="167.3812" r="2.8853" gradientUnits="userSpaceOnUse">
	<stop  offset="5.320000e-002" style="stop-color:#076690"/>
	<stop  offset="6.700533e-002" style="stop-color:#06678D"/>
	<stop  offset="0.1483" style="stop-color:#046B82"/>
	<stop  offset="0.1961" style="stop-color:#036D7D"/>
	<stop  offset="0.363" style="stop-color:#017270"/>
	<stop  offset="0.5211" style="stop-color:#00746C"/>
	<stop  offset="0.8491" style="stop-color:#008A76"/>
	<stop  offset="0.9785" style="stop-color:#00947B"/>
</radialGradient>
<ellipse fill="#FFFFFF" stroke="url(#SVGID_8_)" stroke-miterlimit="10" cx="418.4" cy="167.4" rx="2.4" ry="2.4"/>
</svg>
